<?xml version="1.0" standalone="no"?><!DOCTYPE svg PUBLIC "-//W3C//DTD SVG 1.1//EN" "http://www.w3.org/Graphics/SVG/1.1/DTD/svg11.dtd">
<svg x="0.0000mm" y="0.0000mm" width="101.0710mm" height="26.4580mm" viewBox="0.0000 0.0000 101.0710 26.4580" version="1.1" xmlns="http://www.w3.org/2000/svg" shape-rendering="crispEdges">
<title>TBarCode - 11.15.0.16817</title>
<desc>BarCode licensed to MEM:TEC-IT Datenverarbeitung GmbH Internal License</desc>
<g fill="rgb(0%,0%,0%)">
</g>
<g fill="rgb(100%,100%,100%)">
<rect x="0.0000" y="0.0000" width="101.0710" height="26.4580" />
</g>
<g fill="rgb(0%,0%,0%)">
</g>
<g fill="rgb(0%,0%,0%)">
<rect x="0.0000" y="0.0000" width="0.5292" height="26.4580" />
<rect x="2.1167" y="0.0000" width="0.5292" height="26.4580" />
<rect x="3.1750" y="0.0000" width="1.5875" height="26.4580" />
<rect x="5.2917" y="0.0000" width="1.5875" height="26.4580" />
<rect x="7.4083" y="0.0000" width="0.5292" height="26.4580" />
<rect x="8.4667" y="0.0000" width="0.5292" height="26.4580" />
<rect x="9.5250" y="0.0000" width="0.5292" height="26.4580" />
<rect x="10.5834" y="0.0000" width="1.5875" height="26.4580" />
<rect x="13.7584" y="0.0000" width="0.5292" height="26.4580" />
<rect x="14.8167" y="0.0000" width="1.5875" height="26.4580" />
<rect x="16.9334" y="0.0000" width="0.5292" height="26.4580" />
<rect x="19.0500" y="0.0000" width="0.5292" height="26.4580" />
<rect x="20.1084" y="0.0000" width="0.5292" height="26.4580" />
<rect x="22.2250" y="0.0000" width="0.5292" height="26.4580" />
<rect x="24.3417" y="0.0000" width="0.5292" height="26.4580" />
<rect x="25.4000" y="0.0000" width="1.5875" height="26.4580" />
<rect x="27.5167" y="0.0000" width="0.5292" height="26.4580" />
<rect x="28.5750" y="0.0000" width="1.5875" height="26.4580" />
<rect x="31.7501" y="0.0000" width="0.5292" height="26.4580" />
<rect x="32.8084" y="0.0000" width="0.5292" height="26.4580" />
<rect x="33.8667" y="0.0000" width="0.5292" height="26.4580" />
<rect x="35.9834" y="0.0000" width="0.5292" height="26.4580" />
<rect x="37.0417" y="0.0000" width="0.5292" height="26.4580" />
<rect x="39.1584" y="0.0000" width="0.5292" height="26.4580" />
<rect x="41.2751" y="0.0000" width="0.5292" height="26.4580" />
<rect x="42.3334" y="0.0000" width="1.5875" height="26.4580" />
<rect x="44.4501" y="0.0000" width="0.5292" height="26.4580" />
<rect x="45.5084" y="0.0000" width="0.5292" height="26.4580" />
<rect x="46.5667" y="0.0000" width="0.5292" height="26.4580" />
<rect x="48.6834" y="0.0000" width="1.5875" height="26.4580" />
<rect x="50.8001" y="0.0000" width="0.5292" height="26.4580" />
<rect x="52.9168" y="0.0000" width="0.5292" height="26.4580" />
<rect x="53.9751" y="0.0000" width="0.5292" height="26.4580" />
<rect x="56.0918" y="0.0000" width="0.5292" height="26.4580" />
<rect x="58.2084" y="0.0000" width="0.5292" height="26.4580" />
<rect x="59.2668" y="0.0000" width="1.5875" height="26.4580" />
<rect x="62.4418" y="0.0000" width="0.5292" height="26.4580" />
<rect x="63.5001" y="0.0000" width="0.5292" height="26.4580" />
<rect x="64.5584" y="0.0000" width="0.5292" height="26.4580" />
<rect x="65.6168" y="0.0000" width="1.5875" height="26.4580" />
<rect x="67.7334" y="0.0000" width="0.5292" height="26.4580" />
<rect x="68.7918" y="0.0000" width="0.5292" height="26.4580" />
<rect x="69.8501" y="0.0000" width="1.5875" height="26.4580" />
<rect x="73.0251" y="0.0000" width="0.5292" height="26.4580" />
<rect x="74.0835" y="0.0000" width="1.5875" height="26.4580" />
<rect x="76.2001" y="0.0000" width="0.5292" height="26.4580" />
<rect x="78.3168" y="0.0000" width="0.5292" height="26.4580" />
<rect x="79.3751" y="0.0000" width="0.5292" height="26.4580" />
<rect x="81.4918" y="0.0000" width="0.5292" height="26.4580" />
<rect x="83.6085" y="0.0000" width="0.5292" height="26.4580" />
<rect x="84.6668" y="0.0000" width="0.5292" height="26.4580" />
<rect x="86.7835" y="0.0000" width="1.5875" height="26.4580" />
<rect x="88.9001" y="0.0000" width="1.5875" height="26.4580" />
<rect x="91.0168" y="0.0000" width="0.5292" height="26.4580" />
<rect x="92.0752" y="0.0000" width="0.5292" height="26.4580" />
<rect x="93.1335" y="0.0000" width="0.5292" height="26.4580" />
<rect x="95.2502" y="0.0000" width="0.5292" height="26.4580" />
<rect x="96.3085" y="0.0000" width="1.5875" height="26.4580" />
<rect x="98.4252" y="0.0000" width="1.5875" height="26.4580" />
<rect x="100.5418" y="0.0000" width="0.5292" height="26.4580" />
</g>
</svg>
